<svg xmlns="http://www.w3.org/2000/svg" width="495" height="494" viewBox="0 0 495 494">
  <defs>
    <style>
      .cls-1 {
        fill: #f37c20;
      }

      .cls-2 {
        fill: #fff;
        fill-rule: evenodd;
      }
    </style>
  </defs>
  <rect id="Rounded_Rectangle_1" data-name="Rounded Rectangle 1" class="cls-1" width="495" height="494" rx="30" ry="30"/>
  <path id="RF" class="cls-2" d="M91.608,352.5h48.865V266.744h14.886c20.064,0.323,29.448,7.766,35.273,34.949,6.472,26.86,11.65,44.658,15.21,50.807h50.483c-4.207-8.414-11-36.891-17.8-61.486-5.5-20.063-13.915-34.626-29.124-40.774v-0.971c18.769-6.8,38.509-25.889,38.509-53.719,0-20.064-7.119-35.273-20.064-45.629-15.533-12.3-38.186-17.151-70.546-17.151-26.213,0-49.836,1.942-65.693,4.53V352.5Zm48.865-181.544c3.56-.648,10.355-1.618,22.329-1.618,22.653,0.323,36.244,10.355,36.244,30.419,0,19.093-14.562,31.39-39.156,31.39H140.473V170.956ZM275.518,352.5H325.03V264.8h78.313V224.675H325.03V174.839h83.815V134.388H275.518V352.5Z"/>
</svg>
